<svg id="visual" viewBox="0 0 960 540" width="960" height="540" xmlns="http://www.w3.org/2000/svg" xmlns:xlink="http://www.w3.org/1999/xlink" version="1.1"><rect x="0" y="0" width="960" height="540" fill="#001220"></rect><defs><linearGradient id="grad1_0" x1="43.8%" y1="100%" x2="100%" y2="0%"><stop offset="14.444444444444446%" stop-color="#fbae3c" stop-opacity="1"></stop><stop offset="85.55555555555554%" stop-color="#fbae3c" stop-opacity="1"></stop></linearGradient></defs><defs><linearGradient id="grad1_1" x1="43.8%" y1="100%" x2="100%" y2="0%"><stop offset="14.444444444444446%" stop-color="#fbae3c" stop-opacity="1"></stop><stop offset="85.55555555555554%" stop-color="#eb7458" stop-opacity="1"></stop></linearGradient></defs><defs><linearGradient id="grad1_2" x1="43.8%" y1="100%" x2="100%" y2="0%"><stop offset="14.444444444444446%" stop-color="#b84e6c" stop-opacity="1"></stop><stop offset="85.55555555555554%" stop-color="#eb7458" stop-opacity="1"></stop></linearGradient></defs><defs><linearGradient id="grad1_3" x1="43.8%" y1="100%" x2="100%" y2="0%"><stop offset="14.444444444444446%" stop-color="#b84e6c" stop-opacity="1"></stop><stop offset="85.55555555555554%" stop-color="#713c69" stop-opacity="1"></stop></linearGradient></defs><defs><linearGradient id="grad1_4" x1="43.8%" y1="100%" x2="100%" y2="0%"><stop offset="14.444444444444446%" stop-color="#2d2b4c" stop-opacity="1"></stop><stop offset="85.55555555555554%" stop-color="#713c69" stop-opacity="1"></stop></linearGradient></defs><defs><linearGradient id="grad1_5" x1="43.8%" y1="100%" x2="100%" y2="0%"><stop offset="14.444444444444446%" stop-color="#2d2b4c" stop-opacity="1"></stop><stop offset="85.55555555555554%" stop-color="#001220" stop-opacity="1"></stop></linearGradient></defs><defs><linearGradient id="grad2_0" x1="0%" y1="100%" x2="56.3%" y2="0%"><stop offset="14.444444444444446%" stop-color="#fbae3c" stop-opacity="1"></stop><stop offset="85.55555555555554%" stop-color="#fbae3c" stop-opacity="1"></stop></linearGradient></defs><defs><linearGradient id="grad2_1" x1="0%" y1="100%" x2="56.3%" y2="0%"><stop offset="14.444444444444446%" stop-color="#eb7458" stop-opacity="1"></stop><stop offset="85.55555555555554%" stop-color="#fbae3c" stop-opacity="1"></stop></linearGradient></defs><defs><linearGradient id="grad2_2" x1="0%" y1="100%" x2="56.3%" y2="0%"><stop offset="14.444444444444446%" stop-color="#eb7458" stop-opacity="1"></stop><stop offset="85.55555555555554%" stop-color="#b84e6c" stop-opacity="1"></stop></linearGradient></defs><defs><linearGradient id="grad2_3" x1="0%" y1="100%" x2="56.3%" y2="0%"><stop offset="14.444444444444446%" stop-color="#713c69" stop-opacity="1"></stop><stop offset="85.55555555555554%" stop-color="#b84e6c" stop-opacity="1"></stop></linearGradient></defs><defs><linearGradient id="grad2_4" x1="0%" y1="100%" x2="56.3%" y2="0%"><stop offset="14.444444444444446%" stop-color="#713c69" stop-opacity="1"></stop><stop offset="85.55555555555554%" stop-color="#2d2b4c" stop-opacity="1"></stop></linearGradient></defs><defs><linearGradient id="grad2_5" x1="0%" y1="100%" x2="56.3%" y2="0%"><stop offset="14.444444444444446%" stop-color="#001220" stop-opacity="1"></stop><stop offset="85.55555555555554%" stop-color="#2d2b4c" stop-opacity="1"></stop></linearGradient></defs><g transform="translate(960, 540)"><path d="M-432 0C-379.6 -21.5 -327.1 -42.9 -326.6 -74.5C-326.1 -106.2 -377.5 -148 -389.2 -187.4C-401 -226.9 -373.1 -263.9 -323.7 -258.1C-274.3 -252.3 -203.4 -203.7 -179.6 -225.2C-155.7 -246.7 -178.8 -338.3 -161.8 -336.1C-144.9 -333.8 -87.9 -237.6 -54.3 -237.9C-20.7 -238.2 -10.3 -335.1 0 -432L0 0Z" fill="#131f37"></path><path d="M-360 0C-316.3 -17.9 -272.6 -35.8 -272.2 -62.1C-271.7 -88.5 -314.6 -123.3 -324.3 -156.2C-334.1 -189.1 -310.9 -219.9 -269.7 -215.1C-228.6 -210.3 -169.5 -169.7 -149.6 -187.6C-129.7 -205.6 -149 -282 -134.9 -280.1C-120.8 -278.2 -73.3 -198 -45.2 -198.2C-17.2 -198.5 -8.6 -279.3 0 -360L0 0Z" fill="#4d345e"></path><path d="M-288 0C-253 -14.3 -218.1 -28.6 -217.7 -49.7C-217.4 -70.8 -251.6 -98.7 -259.5 -125C-267.3 -151.2 -248.7 -176 -215.8 -172.1C-182.9 -168.2 -135.6 -135.8 -119.7 -150.1C-103.8 -164.4 -119.2 -225.6 -107.9 -224C-96.6 -222.5 -58.6 -158.4 -36.2 -158.6C-13.8 -158.8 -6.9 -223.4 0 -288L0 0Z" fill="#96446e"></path><path d="M-216 0C-189.8 -10.7 -163.6 -21.5 -163.3 -37.3C-163 -53.1 -188.7 -74 -194.6 -93.7C-200.5 -113.4 -186.5 -132 -161.8 -129.1C-137.1 -126.2 -101.7 -101.8 -89.8 -112.6C-77.8 -123.3 -89.4 -169.2 -80.9 -168C-72.5 -166.9 -44 -118.8 -27.1 -118.9C-10.3 -119.1 -5.2 -167.6 0 -216L0 0Z" fill="#d55e64"></path><path d="M-144 0C-126.5 -7.2 -109 -14.3 -108.9 -24.8C-108.7 -35.4 -125.8 -49.3 -129.7 -62.5C-133.7 -75.6 -124.4 -88 -107.9 -86C-91.4 -84.1 -67.8 -67.9 -59.9 -75.1C-51.9 -82.2 -59.6 -112.8 -53.9 -112C-48.3 -111.3 -29.3 -79.2 -18.1 -79.3C-6.9 -79.4 -3.4 -111.7 0 -144L0 0Z" fill="#f88f4a"></path><path d="M-72 0C-63.3 -3.6 -54.5 -7.2 -54.4 -12.4C-54.3 -17.7 -62.9 -24.7 -64.9 -31.2C-66.8 -37.8 -62.2 -44 -53.9 -43C-45.7 -42.1 -33.9 -33.9 -29.9 -37.5C-25.9 -41.1 -29.8 -56.4 -27 -56C-24.2 -55.6 -14.7 -39.6 -9 -39.6C-3.4 -39.7 -1.7 -55.9 0 -72L0 0Z" fill="#fbae3c"></path></g><g transform="translate(0, 0)"><path d="M432 0C405.8 27.9 379.7 55.8 368.5 84.1C357.4 112.4 361.3 141 352.3 169.6C343.3 198.3 321.4 226.8 286.9 228.8C252.4 230.8 205.3 206.3 193.3 242.4C181.3 278.4 204.5 375 187.4 389.2C170.3 403.4 112.9 335.2 75 328.6C37 321.9 18.5 377 0 432L0 0Z" fill="#131f37"></path><path d="M360 0C338.2 23.3 316.4 46.5 307.1 70.1C297.8 93.7 301.1 117.5 293.6 141.4C286.1 165.2 267.9 189 239.1 190.7C210.4 192.4 171 171.9 161.1 202C151.1 232 170.4 312.5 156.2 324.3C142 336.2 94.1 279.3 62.5 273.8C30.9 268.3 15.4 314.1 0 360L0 0Z" fill="#4d345e"></path><path d="M288 0C270.6 18.6 253.1 37.2 245.7 56.1C238.3 74.9 240.8 94 234.9 113.1C228.9 132.2 214.3 151.2 191.3 152.5C168.3 153.9 136.8 137.5 128.9 161.6C120.9 185.6 136.4 250 125 259.5C113.6 268.9 75.3 223.4 50 219C24.7 214.6 12.3 251.3 0 288L0 0Z" fill="#96446e"></path><path d="M216 0C202.9 14 189.8 27.9 184.3 42.1C178.7 56.2 180.6 70.5 176.1 84.8C171.6 99.1 160.7 113.4 143.5 114.4C126.2 115.4 102.6 103.2 96.6 121.2C90.7 139.2 102.3 187.5 93.7 194.6C85.2 201.7 56.5 167.6 37.5 164.3C18.5 161 9.3 188.5 0 216L0 0Z" fill="#d55e64"></path><path d="M144 0C135.3 9.3 126.6 18.6 122.8 28C119.1 37.5 120.4 47 117.4 56.5C114.4 66.1 107.1 75.6 95.6 76.3C84.1 76.9 68.4 68.8 64.4 80.8C60.4 92.8 68.2 125 62.5 129.7C56.8 134.5 37.6 111.7 25 109.5C12.3 107.3 6.2 125.7 0 144L0 0Z" fill="#f88f4a"></path><path d="M72 0C67.6 4.7 63.3 9.3 61.4 14C59.6 18.7 60.2 23.5 58.7 28.3C57.2 33 53.6 37.8 47.8 38.1C42.1 38.5 34.2 34.4 32.2 40.4C30.2 46.4 34.1 62.5 31.2 64.9C28.4 67.2 18.8 55.9 12.5 54.8C6.2 53.7 3.1 62.8 0 72L0 0Z" fill="#fbae3c"></path></g></svg>