<svg id="visual" viewBox="0 0 900 600" width="900" height="600" xmlns="http://www.w3.org/2000/svg" xmlns:xlink="http://www.w3.org/1999/xlink" version="1.1"><g stroke-width="1" stroke-linejoin="bevel"><path d="M430 326.9L361 276.1L364 325.9Z" fill="#f4aa5b" stroke="#f4aa5b"></path><path d="M430 326.9L445 255.1L361 276.1Z" fill="#724374" stroke="#724374"></path><path d="M364 325.9L445 401.6L430 326.9Z" fill="#944b77" stroke="#944b77"></path><path d="M430 326.9L513 257.1L445 255.1Z" fill="#2b335d" stroke="#2b335d"></path><path d="M524 363.9L513 257.1L430 326.9Z" fill="#f2c65c" stroke="#f2c65c"></path><path d="M361 276.1L279 346.9L364 325.9Z" fill="#b35676" stroke="#b35676"></path><path d="M364 325.9L347 445.6L445 401.6Z" fill="#ef8f61" stroke="#ef8f61"></path><path d="M467 166.4L386 164.4L445 255.1Z" fill="#e27869" stroke="#e27869"></path><path d="M445 255.1L386 164.4L361 276.1Z" fill="#724374" stroke="#724374"></path><path d="M361 276.1L261 264.1L279 346.9Z" fill="#ef8f61" stroke="#ef8f61"></path><path d="M275 145.4L261 264.1L361 276.1Z" fill="#724374" stroke="#724374"></path><path d="M445 401.6L524 363.9L430 326.9Z" fill="#724374" stroke="#724374"></path><path d="M513 257.1L467 166.4L445 255.1Z" fill="#944b77" stroke="#944b77"></path><path d="M292 416.6L347 445.6L364 325.9Z" fill="#f2c65c" stroke="#f2c65c"></path><path d="M279 346.9L292 416.6L364 325.9Z" fill="#e27869" stroke="#e27869"></path><path d="M177 434.6L292 416.6L279 346.9Z" fill="#e27869" stroke="#e27869"></path><path d="M467 166.4L440 107.7L386 164.4Z" fill="#f2c65c" stroke="#f2c65c"></path><path d="M386 164.4L275 145.4L361 276.1Z" fill="#cd6570" stroke="#cd6570"></path><path d="M550 107.7L440 107.7L467 166.4Z" fill="#f4aa5b" stroke="#f4aa5b"></path><path d="M381 92.7L275 145.4L386 164.4Z" fill="#00294b" stroke="#00294b"></path><path d="M524 530.3L555 416.6L445 401.6Z" fill="#cd6570" stroke="#cd6570"></path><path d="M445 401.6L555 416.6L524 363.9Z" fill="#f4aa5b" stroke="#f4aa5b"></path><path d="M524 363.9L607 326.9L513 257.1Z" fill="#724374" stroke="#724374"></path><path d="M440 107.7L381 92.7L386 164.4Z" fill="#f4aa5b" stroke="#f4aa5b"></path><path d="M555 416.6L607 326.9L524 363.9Z" fill="#f2c65c" stroke="#f2c65c"></path><path d="M513 257.1L564 153.4L467 166.4Z" fill="#e27869" stroke="#e27869"></path><path d="M281 500.3L386 511.3L347 445.6Z" fill="#4f3c6b" stroke="#4f3c6b"></path><path d="M347 445.6L386 511.3L445 401.6Z" fill="#f4aa5b" stroke="#f4aa5b"></path><path d="M607 326.9L607 245.1L513 257.1Z" fill="#2b335d" stroke="#2b335d"></path><path d="M275 145.4L190 235.1L261 264.1Z" fill="#e27869" stroke="#e27869"></path><path d="M261 264.1L157 329.9L279 346.9Z" fill="#f4aa5b" stroke="#f4aa5b"></path><path d="M607 245.1L564 153.4L513 257.1Z" fill="#724374" stroke="#724374"></path><path d="M177 434.6L281 500.3L292 416.6Z" fill="#944b77" stroke="#944b77"></path><path d="M292 416.6L281 500.3L347 445.6Z" fill="#ef8f61" stroke="#ef8f61"></path><path d="M190 235.1L157 329.9L261 264.1Z" fill="#f2c65c" stroke="#f2c65c"></path><path d="M625 77.7L550 107.7L564 153.4Z" fill="#f4aa5b" stroke="#f4aa5b"></path><path d="M564 153.4L550 107.7L467 166.4Z" fill="#b35676" stroke="#b35676"></path><path d="M440 107.7L447 0L381 92.7Z" fill="#4f3c6b" stroke="#4f3c6b"></path><path d="M275 145.4L176 185.4L190 235.1Z" fill="#f4aa5b" stroke="#f4aa5b"></path><path d="M74 244.1L104 356.9L157 329.9Z" fill="#2b335d" stroke="#2b335d"></path><path d="M183 90.7L176 185.4L275 145.4Z" fill="#b35676" stroke="#b35676"></path><path d="M386 511.3L476 537.3L445 401.6Z" fill="#2b335d" stroke="#2b335d"></path><path d="M427 600L476 537.3L386 511.3Z" fill="#724374" stroke="#724374"></path><path d="M524 530.3L604 451.6L555 416.6Z" fill="#e27869" stroke="#e27869"></path><path d="M555 416.6L604 451.6L607 326.9Z" fill="#00294b" stroke="#00294b"></path><path d="M157 329.9L177 434.6L279 346.9Z" fill="#cd6570" stroke="#cd6570"></path><path d="M476 537.3L524 530.3L445 401.6Z" fill="#ef8f61" stroke="#ef8f61"></path><path d="M697 263.1L624 159.4L607 245.1Z" fill="#f2c65c" stroke="#f2c65c"></path><path d="M607 245.1L624 159.4L564 153.4Z" fill="#2b335d" stroke="#2b335d"></path><path d="M697 263.1L607 245.1L607 326.9Z" fill="#cd6570" stroke="#cd6570"></path><path d="M342 0L253 69.7L381 92.7Z" fill="#00294b" stroke="#00294b"></path><path d="M381 92.7L253 69.7L275 145.4Z" fill="#b35676" stroke="#b35676"></path><path d="M253 69.7L183 90.7L275 145.4Z" fill="#944b77" stroke="#944b77"></path><path d="M74 244.1L157 329.9L190 235.1Z" fill="#e27869" stroke="#e27869"></path><path d="M74 244.1L190 235.1L176 185.4Z" fill="#944b77" stroke="#944b77"></path><path d="M157 329.9L104 356.9L177 434.6Z" fill="#2b335d" stroke="#2b335d"></path><path d="M707 369.9L697 263.1L607 326.9Z" fill="#f2c65c" stroke="#f2c65c"></path><path d="M337 600L386 511.3L281 500.3Z" fill="#4f3c6b" stroke="#4f3c6b"></path><path d="M337 600L427 600L386 511.3Z" fill="#2b335d" stroke="#2b335d"></path><path d="M476 537.3L542 600L524 530.3Z" fill="#f2c65c" stroke="#f2c65c"></path><path d="M552 0L447 0L550 107.7Z" fill="#724374" stroke="#724374"></path><path d="M550 107.7L447 0L440 107.7Z" fill="#00294b" stroke="#00294b"></path><path d="M253 69.7L176 0L183 90.7Z" fill="#f4aa5b" stroke="#f4aa5b"></path><path d="M447 0L342 0L381 92.7Z" fill="#4f3c6b" stroke="#4f3c6b"></path><path d="M249 600L337 600L281 500.3Z" fill="#b35676" stroke="#b35676"></path><path d="M524 530.3L641 487.3L604 451.6Z" fill="#b35676" stroke="#b35676"></path><path d="M604 451.6L707 369.9L607 326.9Z" fill="#b35676" stroke="#b35676"></path><path d="M634 600L641 487.3L524 530.3Z" fill="#2b335d" stroke="#2b335d"></path><path d="M707 107.7L625 77.7L624 159.4Z" fill="#b35676" stroke="#b35676"></path><path d="M624 159.4L625 77.7L564 153.4Z" fill="#724374" stroke="#724374"></path><path d="M719 416.6L707 369.9L604 451.6Z" fill="#f4aa5b" stroke="#f4aa5b"></path><path d="M86 489.3L161 517.3L177 434.6Z" fill="#4f3c6b" stroke="#4f3c6b"></path><path d="M177 434.6L161 517.3L281 500.3Z" fill="#724374" stroke="#724374"></path><path d="M104 356.9L94 407.6L177 434.6Z" fill="#f2c65c" stroke="#f2c65c"></path><path d="M65 190.4L74 244.1L176 185.4Z" fill="#2b335d" stroke="#2b335d"></path><path d="M104 356.9L0 346.9L94 407.6Z" fill="#724374" stroke="#724374"></path><path d="M342 0L257 0L253 69.7Z" fill="#f2c65c" stroke="#f2c65c"></path><path d="M427 600L542 600L476 537.3Z" fill="#e27869" stroke="#e27869"></path><path d="M161 517.3L249 600L281 500.3Z" fill="#b35676" stroke="#b35676"></path><path d="M625 77.7L552 0L550 107.7Z" fill="#b35676" stroke="#b35676"></path><path d="M641 487.3L719 416.6L604 451.6Z" fill="#4f3c6b" stroke="#4f3c6b"></path><path d="M810 178.4L731 181.4L827 238.1Z" fill="#b35676" stroke="#b35676"></path><path d="M737 495.3L719 416.6L641 487.3Z" fill="#724374" stroke="#724374"></path><path d="M75 77.7L65 190.4L176 185.4Z" fill="#b35676" stroke="#b35676"></path><path d="M0 420.6L86 489.3L94 407.6Z" fill="#cd6570" stroke="#cd6570"></path><path d="M75 77.7L176 185.4L183 90.7Z" fill="#f4aa5b" stroke="#f4aa5b"></path><path d="M782 329.9L697 263.1L707 369.9Z" fill="#724374" stroke="#724374"></path><path d="M697 263.1L731 181.4L624 159.4Z" fill="#944b77" stroke="#944b77"></path><path d="M625 77.7L608 0L552 0Z" fill="#944b77" stroke="#944b77"></path><path d="M731 181.4L707 107.7L624 159.4Z" fill="#b35676" stroke="#b35676"></path><path d="M0 284.1L104 356.9L74 244.1Z" fill="#f2c65c" stroke="#f2c65c"></path><path d="M94 407.6L86 489.3L177 434.6Z" fill="#f4aa5b" stroke="#f4aa5b"></path><path d="M161 517.3L163 600L249 600Z" fill="#944b77" stroke="#944b77"></path><path d="M698 0L608 0L625 77.7Z" fill="#724374" stroke="#724374"></path><path d="M257 0L176 0L253 69.7Z" fill="#f2c65c" stroke="#f2c65c"></path><path d="M77 600L163 600L161 517.3Z" fill="#ef8f61" stroke="#ef8f61"></path><path d="M542 600L634 600L524 530.3Z" fill="#b35676" stroke="#b35676"></path><path d="M822 439.6L782 329.9L719 416.6Z" fill="#00294b" stroke="#00294b"></path><path d="M719 416.6L782 329.9L707 369.9Z" fill="#cd6570" stroke="#cd6570"></path><path d="M788 74.7L698 0L707 107.7Z" fill="#e27869" stroke="#e27869"></path><path d="M111 0L75 77.7L183 90.7Z" fill="#cd6570" stroke="#cd6570"></path><path d="M718 600L737 495.3L641 487.3Z" fill="#ef8f61" stroke="#ef8f61"></path><path d="M0 171.4L74 244.1L65 190.4Z" fill="#00294b" stroke="#00294b"></path><path d="M0 171.4L0 284.1L74 244.1Z" fill="#2b335d" stroke="#2b335d"></path><path d="M0 284.1L0 346.9L104 356.9Z" fill="#724374" stroke="#724374"></path><path d="M176 0L111 0L183 90.7Z" fill="#ef8f61" stroke="#ef8f61"></path><path d="M0 346.9L0 420.6L94 407.6Z" fill="#00294b" stroke="#00294b"></path><path d="M86 489.3L77 600L161 517.3Z" fill="#2b335d" stroke="#2b335d"></path><path d="M75 77.7L0 171.4L65 190.4Z" fill="#4f3c6b" stroke="#4f3c6b"></path><path d="M0 75.7L0 171.4L75 77.7Z" fill="#724374" stroke="#724374"></path><path d="M707 107.7L698 0L625 77.7Z" fill="#944b77" stroke="#944b77"></path><path d="M788 74.7L707 107.7L731 181.4Z" fill="#724374" stroke="#724374"></path><path d="M827 238.1L731 181.4L697 263.1Z" fill="#00294b" stroke="#00294b"></path><path d="M782 329.9L827 238.1L697 263.1Z" fill="#4f3c6b" stroke="#4f3c6b"></path><path d="M900 279.1L827 238.1L782 329.9Z" fill="#ef8f61" stroke="#ef8f61"></path><path d="M0 536.3L77 600L86 489.3Z" fill="#f2c65c" stroke="#f2c65c"></path><path d="M634 600L718 600L641 487.3Z" fill="#ef8f61" stroke="#ef8f61"></path><path d="M737 495.3L822 439.6L719 416.6Z" fill="#724374" stroke="#724374"></path><path d="M807 490.3L822 439.6L737 495.3Z" fill="#f2c65c" stroke="#f2c65c"></path><path d="M789 0L788 74.7L900 0Z" fill="#e27869" stroke="#e27869"></path><path d="M810 178.4L788 74.7L731 181.4Z" fill="#00294b" stroke="#00294b"></path><path d="M835 600L807 490.3L737 495.3Z" fill="#944b77" stroke="#944b77"></path><path d="M0 0L0 75.7L75 77.7Z" fill="#2b335d" stroke="#2b335d"></path><path d="M0 420.6L0 536.3L86 489.3Z" fill="#944b77" stroke="#944b77"></path><path d="M788 74.7L789 0L698 0Z" fill="#f4aa5b" stroke="#f4aa5b"></path><path d="M900 100.7L788 74.7L810 178.4Z" fill="#f2c65c" stroke="#f2c65c"></path><path d="M111 0L0 0L75 77.7Z" fill="#2b335d" stroke="#2b335d"></path><path d="M0 536.3L0 600L77 600Z" fill="#2b335d" stroke="#2b335d"></path><path d="M900 334.9L900 279.1L782 329.9Z" fill="#724374" stroke="#724374"></path><path d="M827 238.1L900 149.4L810 178.4Z" fill="#f4aa5b" stroke="#f4aa5b"></path><path d="M900 334.9L782 329.9L822 439.6Z" fill="#00294b" stroke="#00294b"></path><path d="M900 441.6L900 334.9L822 439.6Z" fill="#ef8f61" stroke="#ef8f61"></path><path d="M900 524.3L900 441.6L807 490.3Z" fill="#724374" stroke="#724374"></path><path d="M807 490.3L900 441.6L822 439.6Z" fill="#f2c65c" stroke="#f2c65c"></path><path d="M900 279.1L900 149.4L827 238.1Z" fill="#2b335d" stroke="#2b335d"></path><path d="M718 600L835 600L737 495.3Z" fill="#f2c65c" stroke="#f2c65c"></path><path d="M900 149.4L900 100.7L810 178.4Z" fill="#724374" stroke="#724374"></path><path d="M835 600L900 524.3L807 490.3Z" fill="#e27869" stroke="#e27869"></path><path d="M900 100.7L900 0L788 74.7Z" fill="#724374" stroke="#724374"></path><path d="M835 600L900 600L900 524.3Z" fill="#f4aa5b" stroke="#f4aa5b"></path></g></svg>