<?xml version="1.0" encoding="UTF-8" standalone="no"?>
<svg
   width="618.67999"
   height="159.87"
   version="1.1"
   id="svg18"
   xmlns="http://www.w3.org/2000/svg"
   xmlns:svg="http://www.w3.org/2000/svg">
  <defs
     id="defs22" />
  <g
     id="g313"
     transform="translate(0.24966341)">
    <g
       id="g1348"
       style="fill:#000000">
      <path
         d="m 410.58866,127.27363 c 8.00629,0 14.28667,-1.35774 18.841,-4.07328 4.55416,-2.71551 6.83126,-6.93666 6.83135,-12.66353 v -0.44364 c -9e-5,-5.13526 -2.12036,-9.20854 -6.36061,-12.219858 -4.2405,-3.011246 -11.07066,-4.516879 -20.49041,-4.516926 h -41.9153 v 33.917194 z m -9.65229,-62.107518 c 8.00627,4.6e-5 14.36449,-1.28487 19.07455,-3.854884 4.70987,-2.569799 7.06484,-6.718096 7.06493,-12.444993 v -0.443637 c -9e-5,-5.139648 -2.04125,-9.067296 -6.12342,-11.782942 -4.08232,-2.71544 -9.97097,-4.073187 -17.66592,-4.073291 H 367.49469 V 65.166112 Z M 332.17,2.83 h 76.5356 c 18.99784,1.536e-4 33.36492,4.5529083 43.10114,13.658317 7.53681,7.048816 11.30519,15.784629 11.30533,26.207485 v 0.443637 c -1.4e-4,4.405028 -0.58945,8.295682 -1.76805,11.672056 -1.17888,3.376582 -2.74913,6.423711 -4.71112,9.141378 -1.96218,2.717842 -4.23934,5.104032 -6.83137,7.158503 -2.59227,2.054656 -5.37845,3.816801 -8.35861,5.28655 9.57789,3.378758 17.11359,7.967405 22.60705,13.765808 5.49326,5.798539 8.2399,13.837596 8.24003,24.117086 v 0.44364 c -1.3e-4,7.04425 -1.45195,13.21021 -4.35532,18.49783 -2.90381,5.28768 -7.06387,9.69367 -12.48046,13.21803 -5.41681,3.52435 -11.93194,6.16704 -19.54535,7.92808 -7.61367,1.76108 -16.05377,2.6416 -25.32021,2.6416 H 332.17 Z"
         style="font-style:normal;font-weight:bold;font-size:13.8px;font-family:'Gotham Bold';text-align:start;text-anchor:start;fill:#000000;fill-opacity:1;stroke-width:5.1996"
         id="path3880" />
      <g
         id="g6"
         transform="matrix(0.15972938,0,0,0.15959001,-0.24966341,0.13002567)"
         style="fill:#000000">
        <path
           d="m 234.969,499.995 c 0,146.341 118.623,264.938 265.069,264.938 146.349,0 264.954,-118.598 264.954,-264.938 0,-146.301 -118.605,-264.976 -264.954,-264.976 -146.446,0.001 -265.069,118.675 -265.069,264.976"
           id="path2-3"
           style="fill:#000000" />
        <path
           d="M 30.188,499.995 C 105.98,334.676 281.836,201.881 500.039,201.881 c 218.113,0 393.875,132.794 469.629,298.114 -75.754,165.301 -251.516,298.173 -469.629,298.173 -218.203,0 -394.06,-132.872 -469.851,-298.173 M 0,499.995 C 0,776.177 223.856,1000 500.038,1000 776.057,1000 1000,776.177 1000,499.995 1000,223.89 776.057,0 500.038,0 223.856,0 0,223.89 0,499.995"
           id="path4-6"
           style="fill:#000000" />
      </g>
      <path
         stroke="#000000"
         fill="none"
         stroke-width="1"
         d="m 476.25,138.47 1.96,-3.63 1.99,-3.69 1.97,-3.62 1.98,-3.7 1.99,-3.63 1.96,-3.66 2.02,-3.66 2,-3.66 3.62,2.98 3.79,2.74 3.94,2.49 4.1,2.22 4.23,1.96 4.35,1.69 4.46,1.4 4.55,1.12 7.93,1.45 8.03,0.8 8.06,0.26 8.09,-0.26 6.22,-0.81 6.11,-1.44 2.46,-0.89 2.36,-1.11 2,-1.14 1.85,-1.36 1.42,-1.3 1.21,-1.48 0.97,-1.61 0.74,-1.73 0.49,-1.81 0.23,-1.87 -0.03,-1.91 -0.31,-1.9 -0.49,-1.25 -0.76,-1.13 -1.08,-1.09 -1.26,-0.9 -3.63,-1.7 -5.17,-1.54 -7,-1.42 -20.23,-3.08 -12.11,-1.9 -11.62,-2.21 -5.48,-1.32 -5.41,-1.57 -4.93,-1.79 -4.77,-2.16 -4.24,-2.46 -3.95,-2.9 -3.5,-3.43 -2.93,-3.91 -2.29,-4.31 -1.62,-4.63 -1.06,-5.71 -0.38,-5.77 0.29,-5.79 0.96,-5.72 1.48,-5.13 2.09,-4.89 2.66,-4.6 3.21,-4.27 3.72,-3.9 4.12,-3.48 4.6,-3.13 5.03,-2.75 5.6,-2.4 5.77,-1.96 6.36,-1.54 6.45,-1.07 6.73,-0.65 6.73,-0.25 6.73,0.16 6.72,0.55 5.55,0.73 5.48,1.12 5.39,1.49 5.29,1.87 4.43,1.91 4.27,2.22 4.11,2.53 3.92,2.81 4.83,4.24 4.3,4.75 3.72,5.22 3.11,5.63 -3.57,1.87 -3.66,1.85 -3.53,1.87 -3.63,1.89 -3.53,1.87 -3.63,1.89 -3.59,1.87 -3.57,1.85 -1.6,-3.36 -2.07,-3.07 -2.51,-2.73 -2.91,-2.33 -2.31,-1.52 -2.43,-1.32 -2.53,-1.11 -2.62,-0.9 -2.99,-0.88 -3.04,-0.69 -3.51,-0.6 -3.52,-0.4 -7.07,-0.26 -4,0.1 -3.71,0.29 -6.45,0.94 -2.68,0.68 -2.62,0.89 -2.12,0.96 -2.03,1.16 -1.62,1.17 -1.46,1.36 -1.13,1.35 -0.94,1.46 -0.75,1.56 -0.54,1.63 -0.34,1.69 -0.12,1.72 0.1,1.74 0.32,1.73 0.48,1.35 0.74,1.22 1.01,1.14 1.27,1.04 1.7,1.02 1.8,0.84 2.25,0.84 2.66,0.84 7.31,1.59 7.37,1.33 10.14,1.41 12.56,1.8 6.15,1.03 5.99,1.12 5.79,1.37 5.51,1.55 5.15,1.83 5,2.19 4.47,2.53 4.01,2.93 3.63,3.49 3.04,3.99 2.39,4.4 1.69,4.75 1.11,5.91 0.39,5.98 -0.32,5.98 -1.05,5.93 -1.16,3.98 -1.54,3.84 -1.89,3.65 -2.23,3.45 -2.55,3.23 -2.85,2.97 -3.13,2.71 -3.4,2.41 -5.04,3 -5.3,2.51 -5.96,2.27 -6.11,1.78 -6.73,1.4 -6.79,0.98 -6.22,0.57 -6.23,0.27 -6.24,-0.02 -6.23,-0.31 -7.18,-0.6 -7.12,-1.01 -7.06,-1.42 -6.96,-1.82 -4.41,-1.38 -4.34,-1.58 -4.25,-1.76 -4.18,-1.94 -4.08,-2.12 -3.99,-2.31 -3.89,-2.47 -3.78,-2.65 h 0.03 v -0.01"
         id="path8"
         style="fill:#000000;stroke:none" />
      <path
         stroke="#000000"
         fill="none"
         stroke-width="1"
         d="m 168.72,79.9 0.35,-8.19 1.06,-7.93 1.74,-7.61 2.43,-7.41 3.04,-6.92 3.68,-6.57 4.31,-6.18 4.9,-5.74 2.74,-2.7 2.88,-2.54 3,-2.4 3.11,-2.23 3.23,-2.06 3.33,-1.9 3.43,-1.71 3.52,-1.54 3.77,-1.44 3.89,-1.26 4.01,-1.07 4.13,-0.89 6.45,-0.98 6.48,-0.52 6.48,-0.08 6.47,0.38 6.42,0.82 6.36,1.26 6.27,1.7 6.16,2.14 4.7,2.13 4.54,2.46 4.36,2.76 4.16,3.06 2.82,2.38 2.67,2.54 2.52,2.67 2.37,2.82 2.2,2.94 2.03,3.07 1.86,3.18 1.67,3.29 -3.72,2.09 -3.69,2.15 -3.73,2.12 -3.66,2.09 -3.73,2.15 -3.69,2.08 -3.69,2.16 -3.69,2.09 -1.61,-3.3 -1.92,-3.09 -2.19,-2.88 -2.46,-2.65 -2.7,-2.4 -2.92,-2.14 -3.14,-1.85 -3.32,-1.54 -2.97,-1.12 -3.04,-0.92 -3.1,-0.71 -3.13,-0.5 -4.25,-0.38 -4.27,-0.03 -4.25,0.3 -4.22,0.63 -5.44,1.33 -5.13,2.04 -4.77,2.69 -4.35,3.29 -3.86,3.85 -3.33,4.35 -2.73,4.8 -2.08,5.2 -1.3,4.38 -0.92,4.48 -0.58,4.76 -0.19,4.78 0.19,4.78 0.58,4.76 0.96,4.39 1.35,4.28 1.71,4.15 2.08,3.97 2.51,3.75 2.87,3.42 3.2,3.07 3.51,2.7 3.78,2.31 4.01,1.9 4.22,1.47 4.39,1 4.24,0.65 4.28,0.3 4.28,-0.05 4.28,-0.38 3.16,-0.51 3.12,-0.7 3.08,-0.93 3.04,-1.14 3.35,-1.52 3.17,-1.84 2.95,-2.12 2.73,-2.4 2.48,-2.66 2.21,-2.89 1.93,-3.11 1.63,-3.31 3.67,2.09 3.72,2.06 3.69,2.08 3.69,2.13 3.69,2.08 3.73,2.09 3.66,2.12 3.73,2.09 -2.25,4.35 -2.58,4.15 -2.9,3.94 -3.19,3.71 -2.7,2.76 -2.83,2.6 -2.98,2.43 -3.1,2.27 -3.22,2.09 -3.33,1.91 -3.45,1.72 -3.54,1.53 -5.25,1.98 -5.37,1.59 -5.47,1.22 -5.56,0.83 -5.78,0.54 -5.8,0.19 -5.78,-0.17 -5.76,-0.52 -5.71,-0.87 -5.66,-1.21 -5.58,-1.57 -5.49,-1.91 -3.57,-1.53 -3.46,-1.71 -3.35,-1.88 -3.24,-2.04 -3.12,-2.21 -3,-2.36 -5.6,-5.16 -5.04,-5.71 -2.29,-3.04 -2.14,-3.17 -1.98,-3.29 -1.8,-3.39 -1.64,-3.5 -1.45,-3.59 -2.45,-7.55 -1.76,-7.73 -1.06,-7.85 -0.38,-7.92 -0.03,-0.04"
         id="path16"
         style="fill:#000000;stroke:none" />
    </g>
  </g>
</svg>
